<?xml version="1.0" encoding="utf-8"?>
<!-- Generator: Adobe Illustrator 18.1.1, SVG Export Plug-In . SVG Version: 6.00 Build 0)  -->
<svg version="1.1" id="Layer_1" xmlns="http://www.w3.org/2000/svg" xmlns:xlink="http://www.w3.org/1999/xlink" x="0px" y="0px"
	 viewBox="0 0 250 250" enable-background="new 0 0 250 250" xml:space="preserve">
<g>
	<g>
		<path fill="#FFFFFF" d="M135.6,20.2l-23.1,23.1v67.2l0,0v51.1c0,0,0,0,0,0c0,24.9-20.2,45-45,45c-24.9,0-45-20.2-45-45h-0.3
			l-19.9,20c8.5,28,34.5,48.3,65.3,48.3c37.7,0,68.2-30.5,68.2-68.2L135.6,20.2L135.6,20.2z"/>
		<path fill="#FFFFFF" d="M180.7,93.3c-37.7,0-68.2,30.6-68.2,68.2c0,37.7,30.5,68.2,68.2,68.2c0,0,0,0,0.1,0h45h23.1h0.1v-68.2
			c0,0,0,0,0,0C249,123.9,218.4,93.3,180.7,93.3z M180.7,206.6c-24.9,0-45-20.2-45-45c0-24.9,20.2-45,45-45c24.9,0,45,20.2,45,45
			C225.8,186.4,205.6,206.6,180.7,206.6z"/>
	</g>
</g>
</svg>
